<?xml version="1.0" standalone="no"?>
<!DOCTYPE svg PUBLIC "-//W3C//DTD SVG 20010904//EN"
 "http://www.w3.org/TR/2001/REC-SVG-20010904/DTD/svg10.dtd">
<svg version="1.0" xmlns="http://www.w3.org/2000/svg"
 width="64.000000pt" height="64.000000pt" viewBox="0 0 64.000000 64.000000"
 preserveAspectRatio="xMidYMid meet">
<metadata>
Created by potrace 1.16, written by Peter Selinger 2001-2019
</metadata>
<g transform="translate(0.000000,64.000000) scale(0.100000,-0.100000)"
stroke="none">
<path fill="white" d="M242 614 c-111 -30 -190 -112 -219 -229 -15 -60 -15 -70 0 -130 30
-122 110 -202 232 -232 60 -15 70 -15 130 0 122 30 202 110 232 232 15 60 15
70 0 130 -30 119 -108 200 -223 230 -70 18 -83 18 -152 -1z"/>
<path fill="green" d="M242 614 c-111 -30 -190 -112 -219 -229 -15 -60 -15 -70 0 -130 30
-122 110 -202 232 -232 60 -15 70 -15 130 0 122 30 202 110 232 232 15 60 15
70 0 130 -30 119 -108 200 -223 230 -70 18 -83 18 -152 -1z m330 -269 c8 -19
8 -31 0 -50 l-12 -25 -240 0 -240 0 -12 25 c-8 19 -8 31 0 50 l12 25 240 0
240 0 12 -25z"/>
</g>
</svg>
